# xmcd
#
# Track frame offsets:
#	150
#	18790
#	37995
#
# Disc length: 842 seconds
#
# Revision: 0
# Processed by: cddbd v1.5.2PL0 Copyright (c) Steve Scherf et al.
# Submitted via: audiograbber 1.83.01
#
DISCID=14034803
DTITLE=Faith Hill - Breathe [CD Single]
DYEAR=2000
DGENRE=
TTITLE0=Breathe [Pop Version]
TTITLE1=It All Comes Down To Love [Non-Album Track]
TTITLE2=What's In It For Me [Album Version]
EXTD=
EXTT0=
EXTT1=
EXTT2=
PLAYORDER=
